<?xml version="1.0" encoding="utf-8"?>
<!-- Generator: Adobe Illustrator 22.0.0, SVG Export Plug-In . SVG Version: 6.00 Build 0)  -->
<svg version="1.1"
	 id="Camada_1" xmlns:cc="http://creativecommons.org/ns#" xmlns:dc="http://purl.org/dc/elements/1.1/" xmlns:rdf="http://www.w3.org/1999/02/22-rdf-syntax-ns#"
	 xmlns="http://www.w3.org/2000/svg" xmlns:xlink="http://www.w3.org/1999/xlink" x="0px" y="0px" viewBox="0 0 66.7 13"
	 style="enable-background:new 0 0 66.7 13;" xml:space="preserve">
<style type="text/css">
	.st0{fill:#35062E;}
	.st1{fill:#FFFFFF;}
	.st2{fill:#BDC3C7;}
	.st3{fill:#ECF0F1;}
	.st4{fill:#490A3D;}
	.st5{fill:#BD1550;}
</style>
<g>
	<path class="st0" d="M1.1,3.9v1v0.4v1.4v0.4v2.4v0.4c0,0.6,0.4,1,1,1h7c0.6,0,1-0.4,1-1l0,0V7.3v-2V3.9H1.1z"/>
	<path class="st1" d="M1.1,3.3v1v0.4v1.4v0.4v2.4v0.4c0,0.6,0.4,1,1,1h7c0.6,0,1-0.4,1-1l0,0V6.9v-2V3.3H1.1z"/>
	<path class="st2" d="M1.1,2.9v1v0.4v1.4v0.4v2.4v0.4c0,0.6,0.4,1,1,1h7c0.6,0,1-0.4,1-1l0,0V6.3v-2V2.9H1.1z"/>
	<path class="st3" d="M1.1,2.5v1v0.4v1.4v0.4v2.4v0.4c0,0.6,0.4,1,1,1h7c0.6,0,1-0.4,1-1V8.3V5.9v-2V2.5H1.1z"/>
	<path class="st0" d="M2.1,0.5c-0.6,0-1,0.4-1,1v0.4v2v1v0.4v1.4v0.4v2.4v0.4c0,0.6,0.4,1,1,1h1l0,0H2.3c-0.4,0-0.6-0.4-0.6-0.8
		c0-0.4,0.4-0.8,0.8-0.8h6h0.4c0.6,0,1-0.4,1-1V7.9V5.3v-2V1.9V1.5c0-0.6-0.4-1-1-1h-2C6.9,0.5,2.1,0.5,2.1,0.5z"/>
	<path class="st4" d="M3.7,0.5v8.8h0.4h4.6h0.4c0.6,0,1-0.4,1-1V7.7V5.1v-2V1.9V1.5c0-0.6-0.4-1-1-1h-2h-3C4.1,0.5,3.7,0.5,3.7,0.5z
		"/>
	<g>
		<path class="st5" d="M22.9,2.1v7.6h-0.6V3.3l-2.6,4.8h-0.4l-2.6-4.8v6.2h-0.8V2.1h0.8l2.8,5.2l2.8-5.2H22.9z"/>
		<path class="st5" d="M29.9,3.7v6.4c0,1.6-1,2.4-2.4,2.4c-0.8,0-1.6-0.4-2-0.8l0.4-0.4c0.2,0.2,0.8,0.6,1.6,0.6
			c1,0,1.8-0.6,1.8-1.8V8.7c-0.4,0.4-1,0.8-1.6,1c-1.4,0.2-2.2-0.8-2.2-2.2V3.7h0.6v3.8c0,1.2,0.8,1.8,1.8,1.6
			c0.6-0.2,1.2-0.6,1.6-1V3.7H29.9z"/>
		<path class="st5" d="M39,9.5l-1.2-2.4h-1.2v2.4h-1.2V2.1c0.8,0,1.4,0,2.2,0c1.2,0,2.6,0.8,2.6,2.6c0,1.2-0.6,2-1.2,2.4l1.4,2.4H39
			z M36.6,6.1h1c0.8,0,1.4-0.6,1.4-1.6s-0.6-1.6-1.4-1.6c-0.4,0-0.6,0-1,0V6.1z"/>
		<path class="st5" d="M41.8,6.5c0-1.6,1-3,2.6-3c1.6,0,2.6,1.4,2.6,3c0,0.4,0,0.4,0,0.6h-4l0,0c0,0.8,0.6,1.6,1.4,1.6
			c0.8,0,1.2-0.4,1.4-1l1,0.2c-0.4,1-1.2,1.8-2.4,1.8C42.8,9.7,41.8,8.3,41.8,6.5z M45.8,6.1c0-1-0.8-1.4-1.4-1.4
			c-0.8,0-1.4,0.6-1.4,1.4H45.8z"/>
		<path class="st5" d="M54,8.5v1c-1,0.2-1.6-0.2-1.8-1c-0.4,0.4-0.8,1-1.4,1c-1.4,0.2-2.4-1-2.4-3c0-1.8,1-3.4,2.6-3
			c0.6,0.2,1,0.6,1.2,1V4.1V3.5h1.2v3.8C53.2,8.1,53.4,8.5,54,8.5z M52,7.7L52,7.7V5.5c-0.4-0.4-0.6-0.8-1-1c-1-0.2-1.6,0.8-1.6,2
			s0.6,2,1.4,2C51.2,8.5,51.6,8.3,52,7.7z"/>
		<path class="st5" d="M60,1.5v8h-1V8.7l0,0c-0.4,0.4-0.8,0.8-1.4,1c-1.4,0.2-2.4-1-2.4-3c0-1.8,1-3.4,2.6-3c0.4,0,0.6,0.4,1,0.8v-3
			H60z M58.8,7.7V5.5c-0.4-0.4-0.6-0.8-1.2-1c-1-0.2-1.6,0.8-1.6,2s0.6,2,1.4,2C58,8.5,58.4,8.3,58.8,7.7z"/>
		<path class="st5" d="M61.4,8.1l1-0.2c0.2,0.4,0.4,0.8,1.2,0.8c0.8,0,1-0.4,1-0.8c-0.2-1-3.2-0.8-3.2-2.6c0-1,1-1.8,2-1.8
			c1.2,0,1.8,0.8,2.2,1.4l-1,0.4c0-0.4-0.6-0.8-1.2-0.8c-0.8,0-1,0.6-1,0.8c0.2,1,3,0.6,3,2.6c0,1-0.8,1.8-2.2,1.8
			C62.2,9.7,61.4,8.7,61.4,8.1z"/>
	</g>
</g>
</svg>
